<?xml version="1.0" encoding="utf-8" ?><svg xmlns="http://www.w3.org/2000/svg" xmlns:xlink="http://www.w3.org/1999/xlink" width="1024" height="1024" viewBox="0 0 1024 1024"><path fill="#317879" d="M318.587 190.673C327.873 189.706 338.657 194.298 344.78 201.256C350.227 207.387 353.033 215.42 352.59 223.608C352.138 231.08 349.184 238.182 344.205 243.772C338.821 249.828 324.393 260.918 317.611 266.459L274.187 302.291L164.863 393.348C144.138 410.602 121.305 428.712 101.203 446.482C119.348 446.487 142.12 445.651 159.772 449.014C184.15 453.658 179.025 495.444 179.014 513.978L178.981 583.973C205.436 554.803 237.136 531.695 274.517 518.482C285.802 514.494 295.074 512.678 306.384 509.653C291.552 500.929 281.647 492.874 272.479 478C260.558 459.033 256.786 436.061 262.016 414.278C267.445 392.303 281.361 373.376 300.717 361.64C319.917 350.121 345.196 346.881 366.767 352.473C388.156 358.194 406.401 372.166 417.501 391.324C428.738 410.991 431.745 434.303 425.867 456.179C419.449 479.744 403.442 497.477 382.569 509.411C416.45 516.058 450.586 530.375 476.289 553.948C454.565 564.061 440.819 576.37 431.303 598.825C415.256 588.415 400.44 579.462 381.65 574.758C338.174 563.875 301.762 572.102 264.127 593.857C254.011 600.578 247.57 605.382 238.609 613.644C202.478 647.219 181.262 693.842 179.683 743.14C178.596 770.886 180.452 799.236 179.206 827.059C179.031 830.946 179.006 836.418 179.652 840.215C183.171 860.927 200.227 859.719 216.22 859.821L245.314 859.962L349.325 859.906L349.38 922.525L252.633 922.533C213.421 922.539 170.027 928.822 140.29 898.505C112.729 870.408 115.536 843.18 115.695 807.49L115.734 749.208L115.665 511.139C98.3038 510.678 80.7123 511.369 63.329 511.1C47.3974 510.854 29.4292 513.062 15.8991 502.836C-3.45942 488.204 -3.26809 457.632 11.5154 439.793C19.2256 430.49 28.9724 422.956 38.3131 415.36L63.2158 394.996L146.671 325.829L256.993 234.152L286.255 209.475C297.508 199.97 303.347 192.67 318.587 190.673Z"/><path fill="#E67D64" d="M695.064 190.698C710.777 191.158 718.872 200.473 730.222 210.053L757.381 232.884L848.452 308.572L947.599 391.53L977.996 416.988C995.282 431.394 1015.01 445.024 1015.35 469.963C1015.61 488.11 1003.79 504.676 985.918 508.913C973.071 511.957 957.72 511.077 944.41 511.073L899.748 511.089L899.721 747.201L899.764 809.227C899.789 823.146 900.503 842.414 898.065 855.512C895.132 872.039 887.182 887.263 875.294 899.114C865.399 909.165 852.852 916.198 839.114 919.392C820.508 923.9 785.612 922.53 764.881 922.528L666.753 922.504L666.649 860.019C693.593 860.049 720.096 858.674 747.086 858.929C769.99 858.966 793.02 861.235 815.887 859.256C825.954 858.384 834.589 851.506 835.626 841.086C836.58 831.499 835.905 821.659 836.042 812.003C836.477 781.567 838.261 750.675 834.356 720.412C827.634 671.873 797.511 627.833 758.735 598.673C741.74 586.681 725.204 578.847 705.003 573.932C674.536 566.47 642.446 569.44 613.867 582.368C603.646 587.08 594.602 592.885 585.044 598.747C576.052 577.803 561.002 562.314 539.755 553.991C544.788 548.996 554.159 542.279 560.026 538.339C584.271 522.06 604.763 515.962 632.577 509.057C618.981 501.285 608.158 492.263 599.769 478.748C587.817 459.493 584.022 436.273 589.221 414.215C600.005 368.517 646.72 341.331 692.049 352.108C713.696 357.389 732.359 371.054 743.931 390.097C755.495 409.167 759.049 432.036 753.818 453.716C747.47 479.421 732.365 496.214 710.34 509.608C763.836 520.714 797.62 543.275 836.005 581.747C836.783 573.382 836.419 560.92 836.419 552.152L836.404 502.092C836.398 483.878 833.548 454.659 856.545 449.753C872.95 446.254 896.737 446.526 913.809 446.445C905.378 438.483 892.842 428.51 883.758 420.972L835.86 381.111L685.77 256.253C674.52 246.905 665.068 240.763 663.754 225.26C663.003 216.715 665.734 208.229 671.326 201.725C677.87 194.138 685.355 191.494 695.064 190.698Z"/><path fill="#E67D64" d="M505.297 573.723C543.007 571.273 572.595 605.087 566.375 642.155C562.931 662.673 553.518 672.913 537.549 684.808C563.413 691.151 583.489 701.765 602.542 720.728C610.783 729.005 617.852 738.372 623.551 748.568C643.198 783.162 640.973 813.211 640.962 851.001L640.995 922.588L577.481 922.552L577.488 856.347C577.505 838.606 578.689 812.585 574.449 796.068C571.726 785.86 566.556 776.471 559.386 768.713C546.135 754.258 528.811 746.963 509.391 746.222C477.607 746.831 448.367 765.019 441.081 797.5C436.107 819.673 438.968 845.187 438.804 867.862C438.672 885.999 438.522 904.357 438.812 922.501L374.671 922.515L374.488 852.752C374.453 832.802 373.604 810.118 377.29 790.692C380.51 774.439 386.529 758.868 395.079 744.676C414.098 713.415 443.351 693.47 478.583 684.937C461.611 673.898 450.536 658.672 448.763 638.135C447.5 622.479 452.475 606.958 462.604 594.953C473.971 581.702 488.034 575.111 505.297 573.723Z"/><path fill="#317879" d="M503.306 40.1446C503.471 40.1173 503.637 40.09 503.802 40.0627C514.316 38.8915 524.866 41.9363 533.139 48.5299C554.108 65.0817 577.491 86.8428 598.229 104.542L628.164 130.012C633.449 134.548 639.351 139.097 643.857 144.315C653.623 155.962 654.43 173.245 644.817 185.224C635.478 197.82 616.715 200.557 603.182 193.526C596.231 189.915 586.054 180.326 579.808 175.002L540.583 141.45C540.074 181.27 540.544 222.244 540.544 262.125L540.538 295.734C540.527 319.261 541.947 338.954 513.119 344.453C511.874 344.559 510.625 344.614 509.376 344.618C499.711 344.704 491.247 342.275 484.171 335.431C473.384 324.998 475.013 307.501 475.004 293.655L475.011 261.098L474.974 141.902C470.474 145.159 463.186 151.656 458.682 155.504L431.266 178.8C425.702 183.497 419.075 189.842 412.724 193.082C377.11 211.251 345.393 167.151 375.968 140.019C383.325 133.49 391.252 126.625 398.692 120.218L444.066 81.3775L466.903 61.8917C479.19 51.2658 486.744 42.8161 503.306 40.1446Z"/><path fill="#80ABAA" d="M288.854 641.204C297.662 640.474 308.787 641.185 317.153 640.938C352.719 639.575 375.92 639.559 374.43 683.719C373.576 709.03 382.953 751.101 345.98 753.68C331.535 754.247 316.326 753.423 302.126 753.964C280.752 754.778 262.408 750.843 260.23 725.626C258.949 710.799 260.289 695.092 260.07 680.175C259.76 659.1 264.359 643.019 288.854 641.204Z"/><path fill="#F1AD9E" d="M673.297 641.209C682.253 640.814 696.899 641.585 704.806 640.979C755.911 637.064 756.055 655.84 755.683 700.132C755.475 724.874 760.291 751.605 724.704 753.776C714.707 754.156 703.865 753.626 693.873 753.947C669.027 754.745 643.82 755.492 642.112 723.088C641.373 709.084 642.018 694.01 641.918 679.843C641.756 657.044 648.484 642.73 673.297 641.209Z"/><path fill="#F1AD9E" d="M493.53 792.705C509.342 792.019 548.148 787.875 546.002 813.7C544.192 835.493 555.01 867.588 522.981 868.51C511.628 868.488 486.241 870.604 477.196 864.514C465.662 856.748 469.3 823.304 469.953 810.465C470.608 797.564 482.281 793.558 493.53 792.705Z"/></svg>